# xmcd
#
# Track frame offsets:
# 150
# 16025
# 32772
# 45777
# 56017
# 71322
# 90715
# 106212
# 128637
# 137185
# 146865
# 158852
#
# Disc length: 2291 seconds
#
#
# Revision: 0
# Processed by: cddbd v1.5.2PL0 Copyright (c) Steve Scherf et al.
# Submitted via: FreeRIP 2.96 
#
DISCID=9808f10c
DTITLE=Paulo Simões - Paulo Simões e o Expresso Arrasta-Pé
DYEAR=1900
DGENRE=Country
TTITLE0=Comitiva Esperança
TTITLE1=Diamantina, Minas Gerais
TTITLE2=Trem do Pantanal
TTITLE3=Lobo da Estrada
TTITLE4=Estranhas Coincidências
TTITLE5=Penã
TTITLE6=Sonhos Guaranis
TTITLE7=Polca Outra Vez
TTITLE8=Velhos Amigos
TTITLE9=Pescaria
TTITLE10=Pinha no Pinheiro
TTITLE11=Coração Teimoso
EXTD=
EXTT0=
EXTT1=
EXTT2=
EXTT3=
EXTT4=
EXTT5=
EXTT6=
EXTT7=
EXTT8=
EXTT9=
EXTT10=
EXTT11=
PLAYORDER=
